<!DOCTYPE svg PUBLIC "-//W3C//DTD SVG 1.1//EN" "http://www.w3.org/Graphics/SVG/1.1/DTD/svg11.dtd">
<!-- Uploaded to: SVG Repo, www.svgrepo.com, Transformed by: SVG Repo Mixer Tools -->
<svg fill="#fff" height="800px" width="800px" version="1.1" id="Capa_1" xmlns="http://www.w3.org/2000/svg" xmlns:xlink="http://www.w3.org/1999/xlink" viewBox="0 0 221.472 221.472" xml:space="preserve" stroke="#fff">
<g id="SVGRepo_bgCarrier" stroke-width="0"/>
<g id="SVGRepo_tracerCarrier" stroke-linecap="round" stroke-linejoin="round"/>
<g id="SVGRepo_iconCarrier"> <path d="M199.248,218.479c-1.932,1.931-4.497,2.992-7.226,2.992c-2.729,0-5.295-1.062-7.226-2.991l-18.891-18.892l-8.54,8.54 c-0.976,0.977-2.256,1.465-3.535,1.465s-2.56-0.488-3.535-1.465c-7.927-7.926-7.732-21.344-0.174-31.703l-39.188-39.188 l-39.41,39.41c3.016,4.194,4.91,8.963,5.437,13.823c0.749,6.908-1.306,13.18-5.785,17.659c-0.977,0.976-2.256,1.464-3.535,1.464 s-2.56-0.488-3.535-1.465l-8.539-8.54l-18.891,18.891c-1.93,1.93-4.495,2.992-7.225,2.992s-5.295-1.063-7.225-2.992 c-3.984-3.983-3.984-10.467,0-14.45l18.891-18.891l-8.54-8.54c-1.953-1.952-1.953-5.118,0-7.07 c3.825-3.825,9.135-5.933,14.951-5.933c5.892,0,11.884,2.123,16.983,5.924l39.353-39.353L23.769,50.072 c-1.953-1.952-1.953-5.118,0-7.07c1.951-1.953,5.119-1.953,7.07,0l80.094,80.094l80.094-80.094c1.951-1.953,5.119-1.953,7.07,0 c1.953,1.952,1.953,5.118,0,7.07l-80.094,80.094l39.187,39.187c5.05-3.695,10.949-5.758,16.753-5.758 c5.815,0,11.126,2.106,14.951,5.932c0.938,0.938,1.465,2.21,1.465,3.536s-0.526,2.598-1.465,3.535l-8.54,8.54l18.892,18.891 C203.23,208.014,203.23,214.495,199.248,218.479z M144.068,45.265c0,13.663-4.075,25.726-10.63,33.958v11.057c0,2.762-2.238,5-5,5 H95.74c-2.762,0-5-2.238-5-5V79.222c-6.555-8.232-10.63-20.295-10.63-33.958C80.11,19.883,94.157,0,112.09,0 C130.021,0,144.068,19.883,144.068,45.265z M134.332,42.374c0-15.789-9.958-28.588-22.243-28.588 c-12.284,0-22.243,12.799-22.243,28.588c0,15.789,9.958,28.588,22.243,28.588C124.374,70.962,134.332,58.163,134.332,42.374z"/> </g>
</svg>